<?xml version="1.0" encoding="UTF-8" standalone="no"?>
<!DOCTYPE svg PUBLIC "-//W3C//DTD SVG 1.1//EN" "http://www.w3.org/Graphics/SVG/1.1/DTD/svg11.dtd">
<svg version="1.1" xmlns="http://www.w3.org/2000/svg" xmlns:xlink="http://www.w3.org/1999/xlink" preserveAspectRatio="xMidYMid meet" viewBox="0 0 640 640" width="640" height="640"><defs><path d="M584.94 320C584.94 466.22 466.22 584.94 320 584.94C173.78 584.94 55.06 466.22 55.06 320C55.06 173.78 173.78 55.06 320 55.06C466.22 55.06 584.94 173.78 584.94 320Z" id="a1Qhbo5kt"></path><path d="M350.99 222.77L351 222.38L351.02 221.98L351.06 221.6L351.11 221.21L351.18 220.83L351.27 220.46L351.37 220.09L351.48 219.73L351.61 219.37L351.75 219.02L351.9 218.68L352.06 218.35L352.24 218.02L352.43 217.7L352.63 217.39L352.85 217.08L353.07 216.79L353.31 216.5L353.56 216.22L353.81 215.96L354.08 215.7L354.36 215.45L354.64 215.22L354.94 214.99L355.24 214.78L355.55 214.58L355.87 214.39L356.2 214.21L356.54 214.04L356.88 213.89L357.23 213.75L357.58 213.62L357.95 213.51L358.31 213.41L358.69 213.33L359.07 213.26L359.45 213.2L359.84 213.16L360.23 213.14L360.63 213.13L399.2 213.13L399.6 213.14L399.99 213.16L400.38 213.2L400.76 213.26L401.14 213.33L401.52 213.41L401.89 213.51L402.25 213.62L402.6 213.75L402.95 213.89L403.3 214.04L403.63 214.21L403.96 214.39L404.28 214.58L404.59 214.78L404.89 214.99L405.19 215.22L405.48 215.45L405.75 215.7L406.02 215.96L406.28 216.22L406.52 216.5L406.76 216.79L406.98 217.08L407.2 217.39L407.4 217.7L407.59 218.02L407.77 218.35L407.93 218.68L408.09 219.02L408.23 219.37L408.35 219.73L408.46 220.09L408.56 220.46L408.65 220.83L408.72 221.21L408.77 221.6L408.81 221.98L408.84 222.38L408.84 222.77L408.84 324.03L447.42 367.42L408.84 367.42L408.84 502.42L322.98 502.42L322.98 502.39L322.99 501.97L322.99 408.31L322.98 407.88L322.96 407.46L322.92 407.04L322.86 406.62L322.79 406.21L322.7 405.81L322.6 405.41L322.48 405.02L322.35 404.64L322.21 404.26L322.05 403.89L321.88 403.53L321.7 403.17L321.5 402.83L321.29 402.49L321.07 402.16L320.84 401.85L320.59 401.54L320.34 401.24L320.07 400.95L319.8 400.67L319.51 400.41L319.22 400.15L318.91 399.91L318.6 399.68L318.28 399.46L317.95 399.26L317.61 399.06L317.26 398.89L316.91 398.72L316.55 398.57L316.18 398.43L315.81 398.31L315.43 398.2L315.04 398.11L314.65 398.04L314.25 397.98L313.85 397.94L313.45 397.91L313.04 397.9L273.22 397.9L272.81 397.91L272.41 397.94L272 397.98L271.61 398.04L271.22 398.11L270.83 398.2L270.45 398.31L270.08 398.43L269.71 398.57L269.35 398.72L269 398.89L268.65 399.06L268.31 399.26L267.98 399.46L267.66 399.68L267.34 399.91L267.04 400.15L266.75 400.41L266.46 400.67L266.18 400.95L265.92 401.24L265.67 401.54L265.42 401.85L265.19 402.16L264.97 402.49L264.76 402.83L264.56 403.17L264.38 403.53L264.21 403.89L264.05 404.26L263.91 404.64L263.78 405.02L263.66 405.41L263.56 405.81L263.47 406.21L263.4 406.62L263.34 407.04L263.3 407.46L263.28 407.88L263.27 408.31L263.27 501.97L263.28 502.39L263.28 502.42L177.42 502.42L177.42 367.42L138.84 367.42L293.13 193.85L350.99 258.94L350.99 222.77Z" id="bIYOv3hjU"></path><path d="M406.61 109.83L406.78 109.84L406.94 109.87L407.11 109.89L407.26 109.93L407.42 109.97L407.58 110.01L407.73 110.07L407.88 110.12L408.02 110.18L408.17 110.25L408.31 110.32L408.44 110.4L408.58 110.48L408.71 110.57L408.83 110.66L408.95 110.75L409.07 110.85L409.18 110.96L409.29 111.06L409.4 111.17L409.5 111.29L409.6 111.41L409.69 111.53L409.77 111.66L409.85 111.79L409.93 111.92L410 112.05L410.07 112.19L410.13 112.33L410.18 112.48L410.23 112.62L410.27 112.77L410.31 112.92L410.34 113.07L410.36 113.23L410.38 113.39L410.39 113.54L410.39 113.7L410.39 191.48L492.64 191.48L492.81 191.48L492.98 191.49L493.14 191.51L493.31 191.53L493.47 191.56L493.63 191.59L493.79 191.63L493.94 191.67L494.09 191.73L494.24 191.78L494.39 191.84L494.53 191.91L494.67 191.98L494.81 192.06L494.94 192.14L495.07 192.23L495.19 192.32L495.32 192.41L495.43 192.51L495.55 192.62L495.66 192.72L495.76 192.84L495.86 192.95L495.96 193.07L496.05 193.19L496.14 193.32L496.22 193.45L496.29 193.58L496.36 193.71L496.43 193.85L496.49 193.99L496.54 194.14L496.59 194.28L496.63 194.43L496.67 194.58L496.7 194.73L496.72 194.89L496.74 195.05L496.75 195.2L496.75 195.37L496.75 257.58L496.75 257.74L496.74 257.9L496.72 258.06L496.7 258.21L496.67 258.37L496.63 258.52L496.59 258.67L496.54 258.81L496.49 258.95L496.43 259.1L496.36 259.23L496.29 259.37L496.22 259.5L496.14 259.63L496.05 259.76L495.96 259.88L495.86 260L495.76 260.11L495.66 260.22L495.55 260.33L495.43 260.44L495.32 260.53L495.19 260.63L495.07 260.72L494.94 260.81L494.81 260.89L494.67 260.97L494.53 261.04L494.39 261.1L494.24 261.17L494.09 261.22L493.94 261.27L493.79 261.32L493.63 261.36L493.47 261.39L493.31 261.42L493.14 261.44L492.98 261.46L492.81 261.47L492.64 261.47L410.39 261.47L410.39 339.24L410.39 339.4L410.38 339.56L410.36 339.72L410.34 339.87L410.31 340.03L410.27 340.18L410.23 340.33L410.18 340.47L410.13 340.62L410.07 340.76L410 340.89L409.93 341.03L409.85 341.16L409.77 341.29L409.69 341.42L409.6 341.54L409.5 341.66L409.4 341.77L409.29 341.88L409.18 341.99L409.07 342.1L408.95 342.2L408.83 342.29L408.71 342.38L408.58 342.47L408.44 342.55L408.31 342.63L408.17 342.7L408.02 342.76L407.88 342.83L407.73 342.88L407.58 342.93L407.42 342.98L407.26 343.02L407.11 343.05L406.94 343.08L406.78 343.1L406.61 343.12L406.45 343.13L406.28 343.13L340.48 343.13L340.31 343.13L340.14 343.12L339.97 343.1L339.81 343.08L339.65 343.05L339.49 343.02L339.33 342.98L339.18 342.93L339.03 342.88L338.88 342.83L338.73 342.76L338.59 342.7L338.45 342.63L338.31 342.55L338.18 342.47L338.05 342.38L337.92 342.29L337.8 342.2L337.68 342.1L337.57 341.99L337.46 341.88L337.35 341.77L337.25 341.66L337.16 341.54L337.07 341.42L336.98 341.29L336.9 341.16L336.82 341.03L336.75 340.89L336.69 340.76L336.63 340.62L336.57 340.47L336.53 340.33L336.48 340.18L336.45 340.03L336.42 339.87L336.39 339.72L336.38 339.56L336.37 339.4L336.36 339.24L336.36 261.47L254.11 261.47L253.94 261.47L253.78 261.46L253.61 261.44L253.45 261.42L253.28 261.39L253.12 261.36L252.97 261.32L252.81 261.27L252.66 261.22L252.51 261.17L252.37 261.1L252.22 261.04L252.08 260.97L251.95 260.89L251.81 260.81L251.68 260.72L251.56 260.63L251.44 260.53L251.32 260.44L251.21 260.33L251.1 260.22L250.99 260.11L250.89 260L250.79 259.88L250.7 259.76L250.62 259.63L250.54 259.5L250.46 259.37L250.39 259.23L250.32 259.1L250.26 258.95L250.21 258.81L250.16 258.67L250.12 258.52L250.08 258.37L250.05 258.21L250.03 258.06L250.01 257.9L250 257.74L250 257.58L250 195.37L250 195.2L250.01 195.05L250.03 194.89L250.05 194.73L250.08 194.58L250.12 194.43L250.16 194.28L250.21 194.14L250.26 193.99L250.32 193.85L250.39 193.71L250.46 193.58L250.54 193.45L250.62 193.32L250.7 193.19L250.79 193.07L250.89 192.95L250.99 192.84L251.1 192.72L251.21 192.62L251.32 192.51L251.44 192.41L251.56 192.32L251.68 192.23L251.81 192.14L251.95 192.06L252.08 191.98L252.22 191.91L252.37 191.84L252.51 191.78L252.66 191.73L252.81 191.67L252.97 191.63L253.12 191.59L253.28 191.56L253.45 191.53L253.61 191.51L253.78 191.49L253.94 191.48L254.11 191.48L336.36 191.48L336.36 113.7L336.37 113.54L336.38 113.39L336.39 113.23L336.42 113.07L336.45 112.92L336.48 112.77L336.53 112.62L336.57 112.48L336.63 112.33L336.69 112.19L336.75 112.05L336.82 111.92L336.9 111.79L336.98 111.66L337.07 111.53L337.16 111.41L337.25 111.29L337.35 111.17L337.46 111.06L337.57 110.96L337.68 110.85L337.8 110.75L337.92 110.66L338.05 110.57L338.18 110.48L338.31 110.4L338.45 110.32L338.59 110.25L338.73 110.18L338.88 110.12L339.03 110.07L339.18 110.01L339.33 109.97L339.49 109.93L339.65 109.89L339.81 109.87L339.97 109.84L340.14 109.83L340.31 109.82L340.48 109.82L406.28 109.82L406.45 109.82L406.61 109.83Z" id="a6iJalKi4"></path></defs><g><g><g><g><filter id="shadow10494419" x="-14.94" y="-14.94" width="673.87" height="678.87" filterUnits="userSpaceOnUse" primitiveUnits="userSpaceOnUse"><feFlood></feFlood><feComposite in2="SourceAlpha" operator="in"></feComposite><feGaussianBlur stdDeviation="5.29"></feGaussianBlur><feOffset dx="-4" dy="9" result="afterOffset"></feOffset><feFlood flood-color="#000000" flood-opacity="0.5"></feFlood><feComposite in2="afterOffset" operator="in"></feComposite><feMorphology operator="dilate" radius="0"></feMorphology><feComposite in2="SourceAlpha" operator="out"></feComposite></filter><path d="M584.94 320C584.94 466.22 466.22 584.94 320 584.94C173.78 584.94 55.06 466.22 55.06 320C55.06 173.78 173.78 55.06 320 55.06C466.22 55.06 584.94 173.78 584.94 320Z" id="a1ckgFRaK" fill="white" fill-opacity="1" filter="url(#shadow10494419)"></path></g><use xlink:href="#a1Qhbo5kt" opacity="1" fill="#c42021" fill-opacity="1"></use><g><use xlink:href="#a1Qhbo5kt" opacity="1" fill-opacity="0" stroke="#000000" stroke-width="0" stroke-opacity="1"></use></g></g><g><g><filter id="shadow16695175" x="106.84" y="161.85" width="375.57" height="379.57" filterUnits="userSpaceOnUse" primitiveUnits="userSpaceOnUse"><feFlood></feFlood><feComposite in2="SourceAlpha" operator="in"></feComposite><feGaussianBlur stdDeviation="3.16"></feGaussianBlur><feOffset dx="-3" dy="7" result="afterOffset"></feOffset><feFlood flood-color="#000000" flood-opacity="0.5"></feFlood><feComposite in2="afterOffset" operator="in"></feComposite><feMorphology operator="dilate" radius="0"></feMorphology><feComposite in2="SourceAlpha" operator="out"></feComposite></filter><path d="M350.99 222.77L351 222.38L351.02 221.98L351.06 221.6L351.11 221.21L351.18 220.83L351.27 220.46L351.37 220.09L351.48 219.73L351.61 219.37L351.75 219.02L351.9 218.68L352.06 218.35L352.24 218.02L352.43 217.7L352.63 217.39L352.85 217.08L353.07 216.79L353.31 216.5L353.56 216.22L353.81 215.96L354.08 215.7L354.36 215.45L354.64 215.22L354.94 214.99L355.24 214.78L355.55 214.58L355.87 214.39L356.2 214.21L356.54 214.04L356.88 213.89L357.23 213.75L357.58 213.62L357.95 213.51L358.31 213.41L358.69 213.33L359.07 213.26L359.45 213.2L359.84 213.16L360.23 213.14L360.63 213.13L399.2 213.13L399.6 213.14L399.99 213.16L400.38 213.2L400.76 213.26L401.14 213.33L401.52 213.41L401.89 213.51L402.25 213.62L402.6 213.75L402.95 213.89L403.3 214.04L403.63 214.21L403.96 214.39L404.28 214.58L404.59 214.78L404.89 214.99L405.19 215.22L405.48 215.45L405.75 215.7L406.02 215.96L406.28 216.22L406.52 216.5L406.76 216.79L406.98 217.08L407.2 217.39L407.4 217.7L407.59 218.02L407.77 218.35L407.93 218.68L408.09 219.02L408.23 219.37L408.35 219.73L408.46 220.09L408.56 220.46L408.65 220.83L408.72 221.21L408.77 221.6L408.81 221.98L408.84 222.38L408.84 222.77L408.84 324.03L447.42 367.42L408.84 367.42L408.84 502.42L322.98 502.42L322.98 502.39L322.99 501.97L322.99 408.31L322.98 407.88L322.96 407.46L322.92 407.04L322.86 406.62L322.79 406.21L322.7 405.81L322.6 405.41L322.48 405.02L322.35 404.64L322.21 404.26L322.05 403.89L321.88 403.53L321.7 403.17L321.5 402.83L321.29 402.49L321.07 402.16L320.84 401.85L320.59 401.54L320.34 401.24L320.07 400.95L319.8 400.67L319.51 400.41L319.22 400.15L318.91 399.91L318.6 399.68L318.28 399.46L317.95 399.26L317.61 399.06L317.26 398.89L316.91 398.72L316.55 398.57L316.18 398.43L315.81 398.31L315.43 398.2L315.04 398.11L314.65 398.04L314.25 397.98L313.85 397.94L313.45 397.91L313.04 397.9L273.22 397.9L272.81 397.91L272.41 397.94L272 397.98L271.61 398.04L271.22 398.11L270.83 398.2L270.45 398.31L270.08 398.43L269.71 398.57L269.35 398.72L269 398.89L268.65 399.06L268.31 399.26L267.98 399.46L267.66 399.68L267.34 399.91L267.04 400.15L266.75 400.41L266.46 400.67L266.18 400.95L265.92 401.24L265.67 401.54L265.42 401.85L265.19 402.16L264.97 402.49L264.76 402.83L264.56 403.17L264.38 403.53L264.21 403.89L264.05 404.26L263.91 404.64L263.78 405.02L263.66 405.41L263.56 405.81L263.47 406.21L263.4 406.62L263.34 407.04L263.3 407.46L263.28 407.88L263.27 408.31L263.27 501.97L263.28 502.39L263.28 502.42L177.42 502.42L177.42 367.42L138.84 367.42L293.13 193.85L350.99 258.94L350.99 222.77Z" id="akKSpxg7" fill="white" fill-opacity="1" filter="url(#shadow16695175)"></path></g><use xlink:href="#bIYOv3hjU" opacity="1" fill="#f4f7f5" fill-opacity="1"></use></g><g><g><filter id="shadow14597622" x="207" y="66.82" width="336.75" height="327.32" filterUnits="userSpaceOnUse" primitiveUnits="userSpaceOnUse"><feFlood></feFlood><feComposite in2="SourceAlpha" operator="in"></feComposite><feGaussianBlur stdDeviation="3.87"></feGaussianBlur><feOffset dx="-4" dy="8" result="afterOffset"></feOffset><feFlood flood-color="#000000" flood-opacity="0.5"></feFlood><feComposite in2="afterOffset" operator="in"></feComposite><feMorphology operator="dilate" radius="0"></feMorphology><feComposite in2="SourceAlpha" operator="out"></feComposite></filter><path d="M406.61 109.83L406.78 109.84L406.94 109.87L407.11 109.89L407.26 109.93L407.42 109.97L407.58 110.01L407.73 110.07L407.88 110.12L408.02 110.18L408.17 110.25L408.31 110.32L408.44 110.4L408.58 110.48L408.71 110.57L408.83 110.66L408.95 110.75L409.07 110.85L409.18 110.96L409.29 111.06L409.4 111.17L409.5 111.29L409.6 111.41L409.69 111.53L409.77 111.66L409.85 111.79L409.93 111.92L410 112.05L410.07 112.19L410.13 112.33L410.18 112.48L410.23 112.62L410.27 112.77L410.31 112.92L410.34 113.07L410.36 113.23L410.38 113.39L410.39 113.54L410.39 113.7L410.39 191.48L492.64 191.48L492.81 191.48L492.98 191.49L493.14 191.51L493.31 191.53L493.47 191.56L493.63 191.59L493.79 191.63L493.94 191.67L494.09 191.73L494.24 191.78L494.39 191.84L494.53 191.91L494.67 191.98L494.81 192.06L494.94 192.14L495.07 192.23L495.19 192.32L495.32 192.41L495.43 192.51L495.55 192.62L495.66 192.72L495.76 192.84L495.86 192.95L495.96 193.07L496.05 193.19L496.14 193.32L496.22 193.45L496.29 193.58L496.36 193.71L496.43 193.85L496.49 193.99L496.54 194.14L496.59 194.28L496.63 194.43L496.67 194.58L496.7 194.73L496.72 194.89L496.74 195.05L496.75 195.2L496.75 195.37L496.75 257.58L496.75 257.74L496.74 257.9L496.72 258.06L496.7 258.21L496.67 258.37L496.63 258.52L496.59 258.67L496.54 258.81L496.49 258.95L496.43 259.1L496.36 259.23L496.29 259.37L496.22 259.5L496.14 259.63L496.05 259.76L495.96 259.88L495.86 260L495.76 260.11L495.66 260.22L495.55 260.33L495.43 260.44L495.32 260.53L495.19 260.63L495.07 260.72L494.94 260.81L494.81 260.89L494.67 260.97L494.53 261.04L494.39 261.1L494.24 261.17L494.09 261.22L493.94 261.27L493.79 261.32L493.63 261.36L493.47 261.39L493.31 261.42L493.14 261.44L492.98 261.46L492.81 261.47L492.64 261.47L410.39 261.47L410.39 339.24L410.39 339.4L410.38 339.56L410.36 339.72L410.34 339.87L410.31 340.03L410.27 340.18L410.23 340.33L410.18 340.47L410.13 340.62L410.07 340.76L410 340.89L409.93 341.03L409.85 341.16L409.77 341.29L409.69 341.42L409.6 341.54L409.5 341.66L409.4 341.77L409.29 341.88L409.18 341.99L409.07 342.1L408.95 342.2L408.83 342.29L408.71 342.38L408.58 342.47L408.44 342.55L408.31 342.63L408.17 342.7L408.02 342.76L407.88 342.83L407.73 342.88L407.58 342.93L407.42 342.98L407.26 343.02L407.11 343.05L406.94 343.08L406.78 343.1L406.61 343.12L406.45 343.13L406.28 343.13L340.48 343.13L340.31 343.13L340.14 343.12L339.97 343.1L339.81 343.08L339.65 343.05L339.49 343.02L339.33 342.98L339.18 342.93L339.03 342.88L338.88 342.83L338.73 342.76L338.59 342.7L338.45 342.63L338.31 342.55L338.18 342.47L338.05 342.38L337.92 342.29L337.8 342.2L337.68 342.1L337.57 341.99L337.46 341.88L337.35 341.77L337.25 341.66L337.16 341.54L337.07 341.42L336.98 341.29L336.9 341.16L336.82 341.03L336.75 340.89L336.69 340.76L336.63 340.62L336.57 340.47L336.53 340.33L336.48 340.18L336.45 340.03L336.42 339.87L336.39 339.72L336.38 339.56L336.37 339.4L336.36 339.24L336.36 261.47L254.11 261.47L253.94 261.47L253.78 261.46L253.61 261.44L253.45 261.42L253.28 261.39L253.12 261.36L252.97 261.32L252.81 261.27L252.66 261.22L252.51 261.17L252.37 261.1L252.22 261.04L252.08 260.97L251.95 260.89L251.81 260.81L251.68 260.72L251.56 260.63L251.44 260.53L251.32 260.44L251.21 260.33L251.1 260.22L250.99 260.11L250.89 260L250.79 259.88L250.7 259.76L250.62 259.63L250.54 259.5L250.46 259.37L250.39 259.23L250.32 259.1L250.26 258.95L250.21 258.81L250.16 258.67L250.12 258.52L250.08 258.37L250.05 258.21L250.03 258.06L250.01 257.9L250 257.74L250 257.58L250 195.37L250 195.2L250.01 195.05L250.03 194.89L250.05 194.73L250.08 194.58L250.12 194.43L250.16 194.28L250.21 194.14L250.26 193.99L250.32 193.85L250.39 193.71L250.46 193.58L250.54 193.45L250.62 193.32L250.7 193.19L250.79 193.07L250.89 192.95L250.99 192.84L251.1 192.72L251.21 192.62L251.32 192.51L251.44 192.41L251.56 192.32L251.68 192.23L251.81 192.14L251.95 192.06L252.08 191.98L252.22 191.91L252.37 191.84L252.51 191.78L252.66 191.73L252.81 191.67L252.97 191.63L253.12 191.59L253.28 191.56L253.45 191.53L253.61 191.51L253.78 191.49L253.94 191.48L254.11 191.48L336.36 191.48L336.36 113.7L336.37 113.54L336.38 113.39L336.39 113.23L336.42 113.07L336.45 112.92L336.48 112.77L336.53 112.62L336.57 112.48L336.63 112.33L336.69 112.19L336.75 112.05L336.82 111.92L336.9 111.79L336.98 111.66L337.07 111.53L337.16 111.41L337.25 111.29L337.35 111.17L337.46 111.06L337.57 110.96L337.68 110.85L337.8 110.75L337.92 110.66L338.05 110.57L338.18 110.48L338.31 110.4L338.45 110.32L338.59 110.25L338.73 110.18L338.88 110.12L339.03 110.07L339.18 110.01L339.33 109.97L339.49 109.93L339.65 109.89L339.81 109.87L339.97 109.84L340.14 109.83L340.31 109.82L340.48 109.82L406.28 109.82L406.45 109.82L406.61 109.83Z" id="a2ajL13nO4" fill="white" fill-opacity="1" filter="url(#shadow14597622)"></path></g><use xlink:href="#a6iJalKi4" opacity="1" fill="#f4f7f5" fill-opacity="1"></use></g></g></g></svg>